<?xml version="1.0" encoding="utf-8"?>
<!-- Generator: Adobe Illustrator 27.3.0, SVG Export Plug-In . SVG Version: 6.00 Build 0)  -->
<svg version="1.1" id="Layer_1" xmlns="http://www.w3.org/2000/svg" xmlns:xlink="http://www.w3.org/1999/xlink" x="0px" y="0px"
	 viewBox="0 0 100 100" style="enable-background:new 0 0 100 100;" xml:space="preserve">
<style type="text/css">
	.st0{fill:#FFFFFF;}
	.st1{fill:#36792E;}
</style>
<g>
	<path class="st0" d="M50,100L50,100C22.4,100,0,77.6,0,50v0C0,22.4,22.4,0,50,0h0c27.6,0,50,22.4,50,50v0C100,77.6,77.6,100,50,100
		z"/>
	<path class="st1" d="M34.3,21.5c-1.5,0-2.7,1.2-2.7,2.7c0,4.3,2.6,6.6,4.4,8.1l0.1,0.1c1.8,1.6,2.6,2.4,2.6,4.2
		c0,1.5,1.2,2.7,2.7,2.7s2.7-1.2,2.7-2.7c0-4.3-2.6-6.6-4.4-8.1l-0.1-0.1C37.8,26.8,37,26,37,24.2C37,22.7,35.8,21.5,34.3,21.5z
		 M28.1,42.9c-2,0-3.6,1.6-3.6,3.6v21.4c0,5.9,4.8,10.7,10.7,10.7h21.4c5.9,0,10.7-4.8,10.7-10.7H69c6.9,0,12.5-5.6,12.5-12.5
		S75.9,42.9,69,42.9h-5.3H28.1z M67.2,50H69c3,0,5.3,2.4,5.3,5.3S72,60.7,69,60.7h-1.8V50z M49.4,24.2c0-1.5-1.2-2.7-2.7-2.7
		s-2.7,1.2-2.7,2.7c0,4.3,2.6,6.6,4.4,8.1l0.1,0.1c1.8,1.6,2.6,2.4,2.6,4.2c0,1.5,1.2,2.7,2.7,2.7s2.7-1.2,2.7-2.7
		c0-4.3-2.6-6.6-4.4-8.1l-0.1-0.1C50.3,26.8,49.4,26,49.4,24.2z"/>
</g>
</svg>
